<mxfile host="app.diagrams.net" modified="2024-10-18T09:43:24.503Z" agent="Mozilla/5.0 (Windows NT 10.0; Win64; x64) AppleWebKit/537.36 (KHTML, like Gecko) Chrome/129.0.0.0 Safari/537.36" etag="Bmki9NizVkUtIkbjwd0W" version="24.4.0" type="device">
  <diagram name="Page-1" id="63zfg6-yrEr9rpnVh-C9">
    <mxGraphModel dx="521" dy="1007" grid="0" gridSize="10" guides="1" tooltips="1" connect="1" arrows="1" fold="1" page="0" pageScale="1" pageWidth="850" pageHeight="1100" math="0" shadow="0">
      <root>
        <mxCell id="0" />
        <mxCell id="1" parent="0" />
        <mxCell id="JmRpL0Wuusz8PsF2jHpY-1" value="" style="rounded=0;whiteSpace=wrap;html=1;" vertex="1" parent="1">
          <mxGeometry x="19" y="-44" width="714" height="407" as="geometry" />
        </mxCell>
        <mxCell id="JmRpL0Wuusz8PsF2jHpY-2" value="User Managment" style="text;html=1;align=center;verticalAlign=middle;whiteSpace=wrap;rounded=0;fontSize=16;" vertex="1" parent="1">
          <mxGeometry x="51" y="-33" width="60" height="30" as="geometry" />
        </mxCell>
        <mxCell id="JmRpL0Wuusz8PsF2jHpY-4" value="Register" style="rounded=1;whiteSpace=wrap;html=1;" vertex="1" parent="1">
          <mxGeometry x="28" y="17" width="120" height="60" as="geometry" />
        </mxCell>
        <mxCell id="JmRpL0Wuusz8PsF2jHpY-6" value="Login" style="rounded=1;whiteSpace=wrap;html=1;" vertex="1" parent="1">
          <mxGeometry x="168" y="17" width="120" height="60" as="geometry" />
        </mxCell>
        <mxCell id="JmRpL0Wuusz8PsF2jHpY-7" value="Update Preferences" style="rounded=1;whiteSpace=wrap;html=1;" vertex="1" parent="1">
          <mxGeometry x="28" y="89" width="120" height="60" as="geometry" />
        </mxCell>
      </root>
    </mxGraphModel>
  </diagram>
</mxfile>
